<svg width="16" height="24" viewBox="0 0 16 24" fill="none" xmlns="http://www.w3.org/2000/svg">
    <path d="M3.53592 2.38677C3.53592 2.97304 3.5249 3.66078 3.50287 4.45C3.48084 5.21667 3.45881 5.80294 3.43678 6.20882C3.37069 7.35882 3.33764 8.50882 3.33764 9.65882V9.65882C3.33764 10.5352 4.53265 10.8912 5.23894 10.3724C5.37456 10.2728 5.51186 10.1815 5.65086 10.0985C6.44397 9.625 7.4023 9.38824 8.52586 9.38824C9.341 9.38824 10.1011 9.76029 10.806 10.5044C11.511 11.2485 11.9626 12.1167 12.1609 13.1088C12.227 13.9882 12.2601 15.0593 12.2601 16.3221C12.2601 17.1338 12.3041 18.1936 12.3922 19.5015C12.4363 19.9975 12.5575 20.4598 12.7557 20.8882C12.9761 21.3167 13.2845 21.5309 13.681 21.5309C13.8793 21.5309 14.0335 21.5196 14.1437 21.4971C14.2759 21.4745 14.397 21.4632 14.5072 21.4632C14.8156 21.4632 15.0249 21.5422 15.1351 21.7C15.2672 21.8578 15.3333 22.0833 15.3333 22.3765C15.3333 22.9176 15.069 23.3235 14.5402 23.5941C14.0115 23.8647 13.5268 24 13.0862 24C11.5 24 10.4095 23.3235 9.81465 21.9706C9.48419 21.2039 9.2749 20.2118 9.18678 18.9941C9.09866 17.7539 9.0546 16.3108 9.0546 14.6647C9.0546 13.0412 8.51485 12.2294 7.43534 12.2294C6.84052 12.2294 6.23467 12.5564 5.61782 13.2103C5.02299 13.8417 4.5273 14.6873 4.13075 15.7471C3.7342 16.7843 3.53592 17.8667 3.53592 18.9941L3.56897 22.5118C3.56897 23.0078 3.3817 23.3799 3.00718 23.6279C2.63266 23.8534 2.28017 23.9662 1.94971 23.9662C1.46504 23.9662 1.02443 23.8196 0.627874 23.5265C0.231322 23.2108 0.033046 22.8613 0.033046 22.4779C0.187261 20.7868 0.264368 17.9569 0.264368 13.9882C0.264368 13.2667 0.209291 10.5946 0.0991379 5.97206L0 2.86029C0 2.36422 0.220307 1.93578 0.66092 1.575C1.10153 1.19167 1.59722 1 2.14799 1C2.63266 1 2.98515 1.11274 3.20546 1.33823C3.42577 1.56372 3.53592 1.91323 3.53592 2.38677Z" fill="white"/>
    <path d="M3.53592 2.38677C3.53592 2.97304 3.5249 3.66078 3.50287 4.45C3.48084 5.21667 3.45881 5.80294 3.43678 6.20882C3.37069 7.35882 3.33764 8.50882 3.33764 9.65882C3.33764 10.5157 3.37069 11.4064 3.43678 12.3309C4.11973 11.3162 4.85776 10.5721 5.65086 10.0985C6.44397 9.625 7.4023 9.38824 8.52586 9.38824C9.341 9.38824 10.1011 9.76029 10.806 10.5044C11.511 11.2485 11.9626 12.1167 12.1609 13.1088C12.227 13.9882 12.2601 15.0593 12.2601 16.3221C12.2601 17.1338 12.3041 18.1936 12.3922 19.5015C12.4363 19.9975 12.5575 20.4598 12.7557 20.8882C12.9761 21.3167 13.2845 21.5309 13.681 21.5309C13.8793 21.5309 14.0335 21.5196 14.1437 21.4971C14.2759 21.4745 14.397 21.4632 14.5072 21.4632C14.8156 21.4632 15.0249 21.5422 15.1351 21.7C15.2672 21.8578 15.3333 22.0833 15.3333 22.3765C15.3333 22.9176 15.069 23.3235 14.5402 23.5941C14.0115 23.8647 13.5268 24 13.0862 24C11.5 24 10.4095 23.3235 9.81465 21.9706C9.48419 21.2039 9.2749 20.2118 9.18678 18.9941C9.09866 17.7539 9.0546 16.3108 9.0546 14.6647C9.0546 13.0412 8.51485 12.2294 7.43534 12.2294C6.84052 12.2294 6.23467 12.5564 5.61782 13.2103C5.02299 13.8417 4.5273 14.6873 4.13075 15.7471C3.7342 16.7843 3.53592 17.8667 3.53592 18.9941L3.56897 22.5118C3.56897 23.0078 3.3817 23.3799 3.00718 23.6279C2.63266 23.8534 2.28017 23.9662 1.94971 23.9662C1.46504 23.9662 1.02443 23.8196 0.627874 23.5265C0.231322 23.2108 0.033046 22.8613 0.033046 22.4779C0.187261 20.7868 0.264368 17.9569 0.264368 13.9882C0.264368 13.2667 0.209291 10.5946 0.0991379 5.97206L0 2.86029C0 2.36422 0.220307 1.93578 0.66092 1.575C1.10153 1.19167 1.59722 1 2.14799 1C2.63266 1 2.98515 1.11274 3.20546 1.33823C3.42577 1.56372 3.53592 1.91323 3.53592 2.38677Z" fill="#00C2FF"/>
    <g filter="url(#filter0_d_36_73)">
    <path d="M12.1747 4.83402C12.0801 3.60267 11.5068 2.83103 11.001 2.1501C10.5327 1.51971 10.1282 0.975336 10.1282 0.172303C10.1282 0.1078 10.0921 0.048844 10.0348 0.0192854C9.97735 -0.0104505 9.90831 -0.00558055 9.85608 0.0323796C9.09649 0.575916 8.46272 1.49201 8.24133 2.36609C8.08763 2.97463 8.0673 3.65875 8.06444 4.11058C7.36297 3.96075 7.20407 2.91148 7.20239 2.90005C7.19449 2.84562 7.16124 2.79826 7.11286 2.7724C7.06398 2.74687 7.00652 2.74501 6.95697 2.76954C6.92019 2.78734 6.05409 3.22742 6.00369 4.9845C6.00016 5.04296 6 5.10159 6 5.16021C6 6.86724 7.389 8.25615 9.09615 8.25615C9.09851 8.25631 9.10102 8.25665 9.10304 8.25615C9.10372 8.25615 9.10438 8.25615 9.10522 8.25615C10.8082 8.25127 12.1923 6.86422 12.1923 5.16021C12.1923 5.07437 12.1747 4.83402 12.1747 4.83402ZM9.09615 7.91216C8.52704 7.91216 8.0641 7.41901 8.0641 6.81283C8.0641 6.79217 8.06394 6.77134 8.06544 6.74581C8.07233 6.49017 8.12088 6.31565 8.17413 6.19958C8.27392 6.41391 8.4523 6.61093 8.74206 6.61093C8.83714 6.61093 8.91408 6.534 8.91408 6.43894C8.91408 6.19405 8.91912 5.91153 8.9801 5.65654C9.03436 5.43046 9.16403 5.18993 9.32832 4.99711C9.40138 5.24738 9.54384 5.44994 9.68292 5.64764C9.88198 5.93049 10.0877 6.22293 10.1239 6.72162C10.126 6.75118 10.1282 6.78092 10.1282 6.81283C10.1282 7.419 9.66527 7.91216 9.09615 7.91216Z" fill="#FF0808"/>
    </g>
    <defs>
    <filter id="filter0_d_36_73" x="4" y="0" width="10.1923" height="12.2564" filterUnits="userSpaceOnUse" color-interpolation-filters="sRGB">
    <feFlood flood-opacity="0" result="BackgroundImageFix"/>
    <feColorMatrix in="SourceAlpha" type="matrix" values="0 0 0 0 0 0 0 0 0 0 0 0 0 0 0 0 0 0 127 0" result="hardAlpha"/>
    <feOffset dy="2"/>
    <feGaussianBlur stdDeviation="1"/>
    <feComposite in2="hardAlpha" operator="out"/>
    <feColorMatrix type="matrix" values="0 0 0 0 0 0 0 0 0 0 0 0 0 0 0 0 0 0 0.15 0"/>
    <feBlend mode="normal" in2="BackgroundImageFix" result="effect1_dropShadow_36_73"/>
    <feBlend mode="normal" in="SourceGraphic" in2="effect1_dropShadow_36_73" result="shape"/>
    </filter>
    </defs>
    </svg>
    